PathFileType	4	(X/Y/Z)	C:\Users\Biomechanik\SynologyDrive\AlexP\Athlete_03\Athlete_3_25_03_31\Deadlift_35kg_02\marker_experimental.trc
DataRate	CameraRate	NumFrames	NumMarkers	Units	OrigDataRate	OrigDataStartFrame	OrigNumFrames
200.000000	200.000000	4	55	mm	200.000000	743	1983
Frame#	Time	BL			BR			GLAB			RFHD			LFHD			C7			T6			SPINMOL			SPINM2			SPINM3			T12			BELTOL			BELT2			BELT3			SACROL			SACR2			SACR3			LTHOL			LTH2			LTH3			LSHAOL			LSHA2			LSHA3			LHEE			LTOE			LM5			RTHOL			RTH2			RTH3			RSHAOL			RSHA2			RSHA3			RHEE			RTOE			RM5			STRN			XIPH			LACR			LUAOL			LUA2			LUA3			LLAOL			LLA2			LLA3			LWRR			LWRU			RACR			RUAOL			RUA2			RUA3			RLAOL			RLA2			RLA3			RWRR			RWRU			
		X1	Y1	Z1	X2	Y2	Z2	X3	Y3	Z3	X4	Y4	Z4	X5	Y5	Z5	X6	Y6	Z6	X7	Y7	Z7	X8	Y8	Z8	X9	Y9	Z9	X10	Y10	Z10	X11	Y11	Z11	X12	Y12	Z12	X13	Y13	Z13	X14	Y14	Z14	X15	Y15	Z15	X16	Y16	Z16	X17	Y17	Z17	X18	Y18	Z18	X19	Y19	Z19	X20	Y20	Z20	X21	Y21	Z21	X22	Y22	Z22	X23	Y23	Z23	X24	Y24	Z24	X25	Y25	Z25	X26	Y26	Z26	X27	Y27	Z27	X28	Y28	Z28	X29	Y29	Z29	X30	Y30	Z30	X31	Y31	Z31	X32	Y32	Z32	X33	Y33	Z33	X34	Y34	Z34	X35	Y35	Z35	X36	Y36	Z36	X37	Y37	Z37	X38	Y38	Z38	X39	Y39	Z39	X40	Y40	Z40	X41	Y41	Z41	X42	Y42	Z42	X43	Y43	Z43	X44	Y44	Z44	X45	Y45	Z45	X46	Y46	Z46	X47	Y47	Z47	X48	Y48	Z48	X49	Y49	Z49	X50	Y50	Z50	X51	Y51	Z51	X52	Y52	Z52	X53	Y53	Z53	X54	Y54	Z54	X55	Y55	Z55	

744	3.715	2240.076416015625	491.3587341308595	353.0273437500004	219.8430328369139	499.4219970703125	387.3583374023438	1200.338134765625	1415.932861328125	592.4716796875002	1139.966430664062	1439.869018554688	540.4973144531252	1273.704467773438	1435.205200195312	548.7824707031252	1208.711181640625	1298.471313476562	348.0523681640627	1208.101684570312	1196.0947265625	220.3835449218752	1229.5712890625	1173.592163085938	196.4158020019534	1180.289672851562	1169.180419921875	188.7450866699221	1215.061157226562	1123.452514648438	155.6865692138674	1213.368286132812	1077.324829101562	126.3236541748049	1227.923217773438	1072.541748046875	90.51399230957054	1177.599487304688	1069.049682617188	90.09980010986349	1206.677490234375	1028.358764648438	46.31129455566428	1233.642578125	943.5020751953126	-23.31142425537087	1182.440307617188	941.5262451171876	-20.3807964324949	1208.102905273438	888.4970703125001	-50.6802406311033	1409.32666015625	628.1375122070314	125.4173278808596	1384.6708984375	554.9030761718751	111.6281509399417	1400.94140625	575.7545166015626	153.9779205322268	1414.218872070312	313.7591247558595	206.1515655517581	1403.65771484375	255.8482513427735	152.2985076904299	1402.52685546875	252.8348541259766	201.5992889404299	1307.443481445312	68.30505371093759	107.9982070922854	1309.3203125	47.41393280029305	323.2271728515627	1412.337890625	29.45730781555184	279.0900878906253	1016.316040039062	627.8942871093751	118.006790161133	996.36962890625	609.7799072265626	193.3886871337892	1019.517272949219	581.8251342773439	159.6660156250002	1005.447021484375	332.7906188964844	203.452117919922	1015.178894042969	259.1256713867188	228.9593505859377	1018.067443847656	275.1688537597657	182.6767730712893	1124.71923828125	63.81275558471687	113.5569076538088	1104.230224609375	46.19818115234382	325.8056945800784	1006.781616210938	39.84077453613288	269.7328186035158	1210.206298828125	1138.00048828125	454.0033874511721	1210.1259765625	1001.606262207031	399.3220520019534	1377.06640625	1194.589599609375	414.9748229980471	1457.923461914062	1036.002075195312	418.6494445800784	1481.72705078125	975.8991699218751	413.5979003906253	1435.746948242188	976.6987915039064	436.4973449707034	1486.824340820312	771.1476440429689	409.0273742675784	1516.79296875	719.9868164062501	356.0452270507815	1494.721801757812	710.1881713867189	400.2318420410159	1503.909545898438	605.4198608398439	398.3995361328128	1431.841796875	593.8582153320314	365.4168701171878	1048.968017578125	1193.557250976562	424.2092895507814	968.9462890624998	1036.2626953125	414.6002807617189	981.9063720703123	974.0548706054689	427.0629882812502	938.1597900390623	979.6707153320314	398.7347717285158	941.6772460937499	762.6581420898439	392.0935974121095	949.5593261718749	696.4012451171876	435.4670715332033	934.8573608398436	700.1914672851564	388.4248352050783	936.4312133789061	609.3343505859376	408.4187011718752	1005.523132324219	585.4450683593751	365.5089111328127	
745	3.72	2240.156982421875	496.6638793945314	353.1123962402348	219.9293823242186	504.7488098144531	387.2401123046876	1200.130126953125	1422.164794921875	590.0494384765627	1139.744506835938	1445.93359375	538.0078125000002	1273.474487304688	1441.32666015625	546.2907714843752	1208.577392578125	1303.475463867188	346.0452575683596	1208.125854492188	1200.025512695312	219.1655273437502	1229.617553710938	1177.337768554688	195.3762512207034	1180.345336914062	1172.879760742188	187.6817169189455	1215.136108398438	1126.863159179688	155.0621643066409	1213.446166992188	1080.469604492188	126.0282516479494	1228.037109375	1075.382446289062	90.23622894287132	1177.718139648438	1071.880737304688	89.81616973876974	1206.847900390625	1030.886108398438	46.29009246826194	1233.772338867188	945.8703002929689	-22.39741706848122	1182.567138671875	943.9272460937501	-19.48483848571756	1208.2177734375	890.7946777343751	-49.60227584838845	1409.03857421875	630.0911865234376	125.1009826660159	1384.367797851562	556.9510498046876	110.6106262207034	1400.656494140625	577.3486938476564	153.1635589599612	1413.820678710938	314.1669311523439	204.7225494384768	1403.258422851562	256.0601501464845	151.0922851562503	1402.234375	253.2230377197266	200.4451446533206	1307.436889648438	68.26473999023446	107.9446029663088	1309.333740234375	47.4263229370118	323.2084655761721	1412.321655273438	29.42051887512216	279.1271972656253	1016.678955078125	629.9930419921876	117.5951232910158	996.7716064453125	611.1277465820314	192.8026123046877	1019.893371582031	583.5522460937501	158.8120117187502	1005.682983398438	333.1662902832032	201.8713378906252	1015.3017578125	259.5976257324219	227.7393646240236	1018.284790039062	275.4320678710938	181.3936004638674	1124.677734375	63.7762756347657	113.5144805908205	1104.216064453125	46.20305252075202	325.7835388183596	1006.768920898438	39.85060501098639	269.7290954589845	1210.061645507812	1143.762573242188	453.174255371094	1210.013671875	1006.9326171875	399.6382751464846	1377	1200.232177734375	413.7594299316409	1457.995849609375	1041.387939453125	418.024841308594	1481.761840820312	981.2308349609376	413.2288513183597	1435.778076171875	982.1611328125001	435.9937133789065	1486.932250976562	776.5076904296876	408.7698669433597	1516.802124023438	725.2685546875001	355.8053283691409	1494.808837890625	715.5300903320314	400.0486450195315	1503.977905273438	610.7387695312501	398.361267089844	1431.905639648438	599.1547241210939	365.3889465332034	1048.888305664062	1199.035278320312	422.8162231445314	968.687072753906	1041.661499023438	413.7131958007814	981.6762695312498	979.4969482421876	426.3883361816408	937.9874267578123	984.9983520507814	397.9822998046877	941.5899047851561	767.9537963867189	391.6527099609377	949.4647827148436	701.7948608398439	435.1576538085939	934.8394775390624	705.4663696289064	388.0708312988283	936.4626464843749	614.6297607421876	408.2422790527345	1005.566345214844	590.7337036132814	365.3812255859377	
746	3.725	2240.23583984375	501.9663696289064	353.1934204101566	220.0133209228514	510.061279296875	387.1133117675782	1199.914794921875	1428.38525390625	587.557556152344	1139.511108398438	1451.986083984375	535.451599121094	1273.232421875	1447.440551757812	543.725769042969	1208.44287109375	1308.453125	343.9724731445315	1208.151489257812	1203.908569335938	217.9115905761721	1229.665771484375	1181.031372070312	194.3093414306643	1180.402465820312	1176.521484375	186.5895080566409	1215.214111328125	1130.21484375	154.4251861572268	1213.530517578125	1083.551513671875	125.7336883544924	1228.1572265625	1078.161254882812	89.96350097656273	1177.83984375	1074.645629882812	89.53726959228537	1207.0234375	1033.341430664062	46.28745269775413	1233.909912109375	948.1746826171876	-21.45065307617165	1182.699829101562	946.2615356445314	-18.55625534057596	1208.342041015625	893.0256347656251	-48.48789596557595	1408.748657226562	632.0131225585939	124.8416595458987	1384.060424804688	558.9768066406251	109.6410827636721	1400.34326171875	578.9130249023439	152.4023284912112	1413.4091796875	314.5732727050782	203.3094177246096	1402.845825195312	256.2732543945314	149.9006805419924	1401.927978515625	253.6080322265626	199.3054809570315	1307.433959960938	68.22560119628915	107.8887939453127	1309.347534179688	47.438762664795	323.1901550292971	1412.3046875	29.38269615173348	279.1667175292972	1017.031982421875	632.0654296875001	117.2337341308596	997.1766967773438	612.4471435546876	192.2612152099611	1020.26904296875	585.2546997070314	157.9998016357424	1005.94140625	333.5401000976563	200.2998657226564	1015.433471679688	260.0661010742188	226.5251159667971	1018.519104003906	275.6971130371094	180.1167144775393	1124.63818359375	63.73983764648445	113.4718399047854	1104.203247070312	46.21152496337898	325.7619934082034	1006.756652832031	39.85801315307624	269.7267456054689	1209.915161132812	1149.53076171875	452.3083801269534	1209.904907226562	1012.263122558594	399.9530334472659	1376.93701171875	1205.874755859375	412.491394042969	1458.077758789062	1046.772827148438	417.3609313964847	1481.802856445312	986.5480957031251	412.8300476074222	1435.81884765625	987.6264038085939	435.4595642089847	1487.045532226562	781.8657836914064	408.4857482910159	1516.803344726562	730.5433959960939	355.5375061035159	1494.898681640625	720.8694458007814	399.8446044921878	1504.043701171875	616.0540771484376	398.3134460449222	1431.965087890625	604.4464111328126	365.3557434082034	1048.8271484375	1204.490600585938	421.3719482421877	968.4188232421873	1047.051635742188	412.7931213378908	981.4376831054685	984.9297485351564	425.6855773925783	937.8111572265623	990.3147583007814	397.196258544922	941.5020751953124	773.2393188476564	391.1944274902345	949.3706054687499	707.1796875000001	434.8341369628908	934.8215332031249	710.7310791015626	387.7029724121095	936.4917602539061	619.9162597656251	408.0584716796877	1005.608154296875	596.0120239257814	365.2455139160158	
747	3.73	2240.3125	507.2655029296876	353.2707214355473	220.0944519042968	515.3577270507812	386.9785156250001	1199.692016601562	1434.586791992188	584.9971923828127	1139.265869140625	1458.01904296875	532.8296508789065	1272.978271484375	1453.540405273438	541.0888671875002	1208.307983398438	1313.3984375	341.8350830078127	1208.17822265625	1207.7392578125	216.6216430664065	1229.715698242188	1184.667846679688	193.2156829833987	1180.45947265625	1180.100830078125	185.4696502685549	1215.29443359375	1133.503540039062	153.7764434814455	1213.620239257812	1086.567260742188	125.4402923583987	1228.282104492188	1080.874755859375	89.69831085205101	1177.963256835938	1077.34130859375	89.26448822021506	1207.20263671875	1035.72216796875	46.30687713623069	1234.055541992188	950.4143066406251	-20.46991729736305	1182.8388671875	948.5275878906251	-17.59377861022928	1208.47705078125	895.1892089843751	-47.33709716796853	1408.456909179688	633.9034423828126	124.6397094726565	1383.747680664062	560.9807739257814	108.7195663452151	1400.004028320312	580.4503784179689	151.6929168701174	1412.985107421875	314.9783020019532	201.910583496094	1402.419677734375	256.482391357422	148.7267761230471	1401.6083984375	253.9883117675782	198.1809234619143	1307.4345703125	68.18734741210946	107.8307952880862	1309.36181640625	47.45133209228523	323.1723632812502	1412.288452148438	29.34640693664559	279.2054138183597	1017.376220703125	634.1094970703126	116.9233932495119	997.584228515625	613.7371826171876	191.7652587890627	1020.644897460938	586.9307250976564	157.2301330566408	1006.223083496094	333.9116516113282	198.7365112304689	1015.572692871094	260.5299987792969	225.3153991699221	1018.772094726562	275.9629211425782	178.8462371826174	1124.60107421875	63.70218276977546	113.4287033081057	1104.191162109375	46.2248840332032	325.7416992187502	1006.744995117188	39.86315917968756	269.725555419922	1209.767578125	1155.298950195312	451.4050598144534	1209.7998046875	1017.592590332031	400.264831542969	1376.877807617188	1211.511352539062	411.1706542968752	1458.170532226562	1052.153442382812	416.658142089844	1481.851928710938	991.8524169921876	412.396179199219	1435.870849609375	993.0908203125001	434.8962402343753	1487.1640625	787.2178955078126	408.1776428222659	1516.797729492188	735.8076782226564	355.2447814941409	1494.991577148438	726.2025756835939	399.6220397949222	1504.107543945312	621.3619384765626	398.2576599121097	1432.020874023438	609.7299194335939	365.318542480469	1048.784790039062	1209.91796875	419.877410888672	968.1417846679685	1052.428466796875	411.8408508300783	981.190490722656	990.3488769531251	424.956024169922	937.6300659179685	995.6157226562501	396.378387451172	941.4119873046874	778.5106201171876	390.7204589843752	949.2747192382811	712.5509643554689	434.4976806640627	934.8012695312499	715.9815673828126	387.3228149414064	936.5159301757811	625.1895751953126	407.8685913085939	1005.646728515625	601.2770385742189	365.103240966797	
